#!OML:ASF E:\Steps\Project 1\Capture day 1\Session 2\Subject.ASF
:FULLY-SPECIFIED
:DEGREES
249
root 9.98629 15.92 9.20329 -149.017 -49.4347 176.132
lowerback -18.5765 4.33612 -6.15365
upperback -2.8872 6.82376 -1.98488
thorax 6.75025 3.07349 2.92406
lowerneck 0.162543 15.4506 10.8126
upperneck 2.94567 20.0912 3.77177
head 1.57971 10.0515 -0.105672
rclavicle 9.11925e-014 -4.25399e-014
rhumerus -31.8363 9.58123 -88.0304
rradius 53.3611
rwrist -7.06046
rhand -14.29 -50.3242
rfingers 7.12502
rthumb 11.8495 -439.969
lclavicle 9.11925e-014 -4.25399e-014
lhumerus -31.3814 -10.8557 85.8885
lradius 39.4625
lwrist 3.96213
lhand -27.3462 -18.8426
lfingers 7.12502
lthumb -0.754475 11.1358
rfemur -46.399 -18.1316 33.3268
rtibia 50.4998
rfoot -17.3438 -23.0534
rtoes -43.6268
lfemur -58.4297 -17.9068 -9.91214
ltibia 49.8159
lfoot 20.6721 -15.8177
ltoes 41.321
250
root 9.95825 16.2399 9.12758 -148.806 -52.1571 176.144
lowerback -19.9004 4.12703 -6.19791
upperback -2.81217 6.63452 -1.71877
thorax 7.52277 2.93491 3.31126
lowerneck -0.0869888 15.3915 9.71915
upperneck 2.81795 20.041 3.89185
head 1.44646 10.0289 0.0692737
rclavicle -1.61016e-014 -6.22196e-014
rhumerus -32.3275 9.08714 -87.427
rradius 53.0504
rwrist -6.8746
rhand -16.055 -50.501
rfingers 7.12502
rthumb 10.1471 -440.236
lclavicle -1.61016e-014 -6.22196e-014
lhumerus -30.912 -10.9735 86.1695
lradius 39.4829
lwrist 3.96941
lhand -27.5191 -18.9634
lfingers 7.12502
lthumb -0.921483 11.0144
rfemur -44.6844 -18.1238 33.1801
rtibia 46.8535
rfoot -12.1981 -23.1262
rtoes -42.2477
lfemur -57.0469 -17.6534 -9.69588
ltibia 45.718
lfoot 25.3153 -14.6657
ltoes 36.7101
251
root 9.92597 16.5644 9.06976 -148.257 -54.8618 175.748
lowerback -21.1492 3.8755 -6.3039
upperback -2.73686 6.40637 -1.58036
thorax 8.26908 2.77588 3.57474
lowerneck -0.32651 15.2964 8.87423
upperneck 2.70704 19.9346 3.97925
head 1.34848 9.97815 0.203256
rclavicle -6.75371e-014 4.37326e-015
rhumerus -32.9123 7.99338 -86.8613
rradius 52.9073
rwrist -6.39143
rhand -16.1515 -50.1784
rfingers 7.12502
rthumb 10.054 -439.918
lclavicle -6.75371e-014 4.37326e-015
lhumerus -30.552 -11.2817 86.4069
lradius 39.6656
lwrist 4.11651
lhand -27.7595 -18.7001
lfingers 7.12502
lthumb -1.15367 11.2765
rfemur -43.1185 -17.9654 32.6776
rtibia 43.3096
rfoot -6.76155 -23.6451
rtoes -40.7635
lfemur -55.6789 -17.3404 -9.96419
ltibia 41.3819
lfoot 30.5894 -13.2255
ltoes 30.6677
252
root 9.8985 16.8916 9.01443 -147.815 -57.3789 175.44
lowerback -22.1309 3.62569 -6.37578
upperback -2.74407 6.14933 -1.4745
thorax 8.79177 2.61593 3.74325
lowerneck -0.486916 15.2312 8.06071
upperneck 2.61595 19.8743 4.09609
head 1.24676 9.94994 0.33738
rclavicle 8.64713e-015 4.11484e-014
rhumerus -33.6683 6.84644 -86.4144
rradius 52.8409
rwrist -5.65579
rhand -12.2056 -50.8937
rfingers 7.12502
rthumb 13.8588 -440.412
lclavicle 8.64713e-015 4.11484e-014
lhumerus -30.3942 -11.6951 86.4717
lradius 39.9639
lwrist 4.40619
lhand -28.2428 -18.3221
lfingers 7.12502
lthumb -1.62041 11.6515
rfemur -41.1789 -17.0122 31.9445
rtibia 39.362
rfoot -1.43594 -24.6129
rtoes -39.9851
lfemur -54.1027 -16.5647 -10.449
ltibia 36.8491
lfoot 36.0764 -10.7847
ltoes 23.4315
253
root 9.86672 17.2205 8.96526 -147.473 -59.9502 175.365
lowerback -23.0065 3.46076 -6.08627
upperback -2.87803 5.8984 -1.42964
thorax 9.15964 2.48029 3.6242
lowerneck -0.62614 15.1421 7.06754
upperneck 2.51758 19.7865 4.368
head 1.10587 9.90717 0.531606
rclavicle -2.15681e-014 1.64991e-014
rhumerus -34.6789 6.56936 -86.2469
rradius 52.8431
rwrist -6.07216
rhand -12.4303 -51.2812
rfingers 7.12502
rthumb 13.6423 -440.814
lclavicle -2.15681e-014 1.64991e-014
lhumerus -30.324 -11.9935 86.42
lradius 40.1927
lwrist 4.70252
lhand -28.487 -18.4997
lfingers 7.12502
lthumb -1.8563 11.4719
rfemur -39.9459 -15.9436 31.3646
rtibia 36.4662
rfoot 3.13485 -25.6095
rtoes -40.3487
lfemur -52.5781 -15.7808 -10.7376
ltibia 32.3336
lfoot 40.5387 -7.52652
ltoes 14.9145
254
root 9.82638 17.5456 8.92547 -147.002 -62.6091 175.138
lowerback -23.8303 3.34038 -5.6248
upperback -3.04507 5.65989 -1.49127
thorax 9.48597 2.36161 3.283
lowerneck -1.07036 15.0405 5.71786
upperneck 2.64724 19.6389 5.16974
head 1.00132 9.84496 0.950841
rclavicle -1.32689e-014 -6.63941e-014
rhumerus -35.6781 6.59169 -86.2389
rradius 52.7705
rwrist -7.29913
rhand -13.4059 -52.0163
rfingers 7.12502
rthumb 12.7019 -441.61
lclavicle -1.32689e-014 -6.63941e-014
lhumerus -30.3852 -12.2652 86.4021
lradius 40.4951
lwrist 4.97457
lhand -28.562 -18.9847
lfingers 7.12502
lthumb -1.92871 10.9863
rfemur -37.6314 -13.9487 30.3813
rtibia 31.85
rfoot 7.91354 -27.3836
rtoes -39.8805
lfemur -51.0305 -15.1775 -11.192
ltibia 28.0714
lfoot 42.995 -4.92569
ltoes 3.31878
255
root 9.78611 17.8598 8.89533 -146.065 -65.2295 174.364
lowerback -24.4226 3.13311 -5.36276
upperback -3.29037 5.33526 -1.60376
thorax 9.58731 2.20734 2.94436
lowerneck -1.1406 14.9927 6.29425
upperneck 3.28203 19.528 4.85994
head 1.30701 9.81748 0.839425
rclavicle -1.00138e-014 -2.00773e-014
rhumerus -36.7691 5.66213 -86.0732
rradius 52.7538
rwrist -7.3259
rhand -12.4184 -52.4258
rfingers 7.12502
rthumb 13.6538 -441.958
lclavicle -1.00138e-014 -2.00773e-014
lhumerus -30.6902 -12.7664 86.4289
lradius 40.9546
lwrist 5.52382
lhand -28.5361 -19.3244
lfingers 7.12502
lthumb -1.90367 10.6469
rfemur -36.2348 -12.4721 29.2473
rtibia 28.7676
rfoot 11.5703 -28.7105
rtoes -37.1798
lfemur -49.6945 -14.5109 -12.1558
ltibia 24.8299
lfoot 43.4589 -4.41395
ltoes -10.7865
256
root 9.74664 18.1586 8.87261 -144.804 -67.8826 173.344
lowerback -24.9393 2.88529 -5.07017
upperback -3.59708 4.93188 -1.68027
thorax 9.57755 2.02076 2.59057
lowerneck -1.23959 15.0331 6.69399
upperneck 3.77296 19.5469 4.60929
head 1.55101 9.84907 0.761456
rclavicle -1.05604e-014 4.96962e-016
rhumerus -37.9952 4.39931 -85.738
rradius 52.8886
rwrist -6.70331
rhand -11.638 -52.263
rfingers 7.12502
rthumb 14.4058 -441.743
lclavicle -1.05604e-014 4.96962e-016
lhumerus -31.0433 -13.3801 86.4619
lradius 41.4138
lwrist 6.39098
lhand -28.3415 -19.5988
lfingers 7.12502
lthumb -1.71572 10.3741
rfemur -34.7953 -10.1469 27.7753
rtibia 25.6074
rfoot 13.8821 -30.7259
rtoes -31.9051
lfemur -48.8592 -13.9163 -13.0706
ltibia 22.9541
lfoot 41.8438 -4.4683
ltoes -20.3251
257
root 9.70648 18.4451 8.85034 -143.747 -70.5711 172.548
lowerback -25.4752 2.63779 -4.65068
upperback -3.84775 4.48374 -1.57708
thorax 9.63089 1.81377 2.34744
lowerneck -0.922101 15.1046 6.96946
upperneck 4.22431 19.6604 4.23603
head 1.71549 9.91988 0.628203
rclavicle 5.96354e-015 -1.48095e-014
rhumerus -39.1141 3.96056 -85.3533
rradius 53.0373
rwrist -7.01215
rhand -11.804 -51.9246
rfingers 7.12502
rthumb 14.2458 -441.416
lclavicle 5.96354e-015 -1.48095e-014
lhumerus -31.3193 -13.8319 86.6262
lradius 41.8639
lwrist 7.39154
lhand -28.0507 -19.8849
lfingers 7.12502
lthumb -1.43484 10.09
rfemur -33.5299 -7.53211 26.404
rtibia 22.9017
rfoot 15.3847 -32.1154
rtoes -26.6111
lfemur -48.2337 -13.6564 -13.4132
ltibia 21.8585
lfoot 38.1604 -3.62163
ltoes -25.0047
258
root 9.66388 18.7116 8.82727 -141.514 -73.426 170.646
lowerback -26.2142 2.18209 -4.54737
upperback -4.0521 3.85701 -1.43953
thorax 9.81997 1.5054 2.26793
lowerneck -0.834845 15.1954 6.95986
upperneck 4.57327 19.7954 3.94875
head 1.84834 9.99788 0.5673
rclavicle 8.84592e-015 -2.78299e-015
rhumerus -40.1762 3.79053 -85.0444
rradius 53.2621
rwrist -7.73572
rhand -12.1331 -51.6002
rfingers 7.12502
rthumb 13.9287 -441.114
lclavicle 8.84592e-015 -2.78299e-015
lhumerus -31.6429 -13.7364 86.8393
lradius 42.3119
lwrist 7.69529
lhand -27.5438 -20.3332
lfingers 7.12502
lthumb -0.945293 9.6445
rfemur -32.2934 -4.13965 24.444
rtibia 19.8646
rfoot 17.3528 -32.9781
rtoes -22.0892
lfemur -47.9341 -13.7249 -13.7177
ltibia 21.2024
lfoot 33.8864 -3.13685
ltoes -29.1021
259
root 9.62097 18.9622 8.80974 -138.939 -76.1903 168.341
lowerback -26.9238 1.7562 -4.41967
upperback -4.20717 3.26857 -1.31437
thorax 10.0467 1.21784 2.16306
lowerneck -1.82887 9.68451 3.41006
upperneck -3.5638 12.8205 -0.945633
head -0.518076 6.35482 -0.789637
rclavicle 1.93318e-014 -2.37548e-014
rhumerus -41.2453 3.79337 -84.8391
rradius 53.6264
rwrist -8.83581
rhand -12.7079 -51.4213
rfingers 7.12502
rthumb 13.3747 -440.972
lclavicle 1.93318e-014 -2.37548e-014
lhumerus -31.672 -13.9154 86.9755
lradius 42.4943
lwrist 7.9069
lhand -27.1279 -20.6443
lfingers 7.12502
lthumb -0.543644 9.33478
rfemur -30.9983 0.605021 22.2207
rtibia 16.9974
rfoot 17.8509 -33.7895
rtoes -14.6233
lfemur -47.5968 -13.3523 -14.2125
ltibia 20.6912
lfoot 30.2747 -3.55789
ltoes -34.0724
260
root 9.58571 19.1942 8.80264 -135.314 -78.9574 165.056
lowerback -27.5714 1.39374 -4.30141
upperback -4.37589 2.7528 -1.10611
thorax 10.2128 0.967072 2.17029
lowerneck -2.16355 9.76788 2.9597
upperneck -2.98816 12.9304 -0.88527
head -0.317768 6.42327 -0.66493
rclavicle 4.32605e-014 1.51076e-014
rhumerus -42.2329 3.70634 -84.2848
rradius 53.9471
rwrist -9.64064
rhand -13.1891 -51.1887
rfingers 7.12502
rthumb 12.9109 -440.769
lclavicle 4.32605e-014 1.51076e-014
lhumerus -31.6061 -14.3649 87.4116
lradius 42.6797
lwrist 8.13084
lhand -26.982 -20.7327
lfingers 7.12502
lthumb -0.402716 9.24663
rfemur -31.9488 -1.21149 22.0298
rtibia 17.7753
rfoot 19.7667 -27.0129
rtoes -13.0226
lfemur -47.4082 -12.7668 -14.8009
ltibia 20.2745
lfoot 27.6244 -3.97862
ltoes -38.9466
261
root 9.55642 19.4067 8.79933 -128.804 -81.6559 158.788
lowerback -28.0468 0.996905 -4.30869
upperback -4.52817 2.22472 -0.888501
thorax 10.3034 0.711495 2.24512
lowerneck -2.36503 9.80376 2.40608
upperneck -2.56394 12.9879 -0.776059
head -0.197608 6.46264 -0.525541
rclavicle 2.60905e-015 2.32578e-014
rhumerus -43.1751 3.16589 -83.4981
rradius 54.1507
rwrist -9.12485
rhand -12.8268 -51.0773
rfingers 7.12502
rthumb 13.2602 -440.635
lclavicle 2.60905e-015 2.32578e-014
lhumerus -31.4561 -14.738 87.8735
lradius 42.7963
lwrist 8.16218
lhand -26.6101 -20.7834
lfingers 7.12502
lthumb -0.043504 9.19638
rfemur -31.4644 1.79652 20.745
rtibia 16.0721
rfoot 20.3961 -24.78
rtoes -19.4581
lfemur -47.128 -11.9851 -15.7329
ltibia 19.9878
lfoot 26.2748 -3.96079
ltoes -39.9466
262
root 9.52837 19.603 8.80049 -118.099 -84.2766 148.114
lowerback -28.3157 0.677371 -4.00433
upperback -4.62127 1.71081 -0.71509
thorax 10.3712 0.479101 2.08794
lowerneck -1.91853 9.92805 2.33729
upperneck -2.74757 13.1671 -1.10463
head -0.303929 6.55535 -0.640546
rclavicle 3.15571e-015 -4.37326e-015
rhumerus -44.1109 2.62711 -82.8982
rradius 54.3293
rwrist -8.51126
rhand -12.2543 -50.7541
rfingers 7.12502
rthumb 13.8119 -440.276
lclavicle 3.15571e-015 -4.37326e-015
lhumerus -31.1249 -15.0154 88.1165
lradius 42.7106
lwrist 7.94633
lhand -26.0229 -20.759
lfingers 7.12502
lthumb 0.523612 9.22013
rfemur -30.9302 4.72015 19.7344
rtibia 14.8642
rfoot 18.5568 -24.7714
rtoes -22.1125
lfemur -46.622 -10.9019 -16.7013
ltibia 19.9273
lfoot 25.7942 -3.62502
ltoes -37.8274
263
root 9.49737 19.786 8.8003 -93.5204 -86.2546 123.25
lowerback -28.3459 0.391084 -3.84415
upperback -4.56548 1.3035 -0.635829
thorax 10.4782 0.297891 1.94099
lowerneck -1.85481 10.077 1.82826
upperneck -2.62004 13.3818 -0.788108
head -0.327091 6.66798 -0.472283
rclavicle 1.61513e-015 6.16232e-015
rhumerus -44.7817 1.92338 -82.3328
rradius 54.2425
rwrist -8.17771
rhand -11.5612 -50.0777
rfingers 7.12502
rthumb 14.4798 -439.552
lclavicle 1.61513e-015 6.16232e-015
lhumerus -30.5833 -15.353 88.3188
lradius 42.4928
lwrist 7.55169
lhand -25.663 -20.8074
lfingers 7.12502
lthumb 0.871243 9.17059
rfemur -30.7866 4.47611 19.7887
rtibia 15.035
rfoot 18.1336 -21.8059
rtoes -29.1812
lfemur -45.7337 -10.0128 -17.7154
ltibia 20.0241
lfoot 25.0803 -2.87131
ltoes -37.3877
